<?xml version="1.0" standalone="no"?><!DOCTYPE svg PUBLIC "-//W3C//DTD SVG 1.1//EN" "http://www.w3.org/Graphics/SVG/1.1/DTD/svg11.dtd"><svg t="1681443216170" class="icon" viewBox="0 0 1024 1024" version="1.1" xmlns="http://www.w3.org/2000/svg" p-id="1793" xmlns:xlink="http://www.w3.org/1999/xlink" width="200" height="200"><path d="M269.351 343.655c0 20.898 16.254 37.152 37.152 37.152s37.152-16.254 37.152-37.152-16.254-37.152-37.152-37.152-37.152 16.254-37.152 37.152z m292.572 195.048c0 16.254 13.932 30.186 30.186 30.186 16.254 0 30.186-13.932 30.186-30.186 0-16.254-13.932-30.186-30.186-30.186-16.254 0-30.186 13.932-30.186 30.186z m-99.846-195.048c0 20.898 16.254 37.152 37.152 37.152s37.152-16.254 37.152-37.152-16.254-37.152-37.152-37.152-37.152 16.254-37.152 37.152z" fill="#42AE3C" p-id="1794"></path><path d="M856.816 0H164.862C74.304 0 0 74.304 0 167.184v689.632C0 949.696 74.304 1024 164.862 1024h691.954c90.558 0 164.862-74.304 164.862-167.184V167.184C1021.678 74.304 947.374 0 856.816 0zM383.13 684.989c-39.474 0-69.66-6.966-109.134-16.254L164.862 722.14l30.186-92.88C118.422 575.855 71.982 506.195 71.982 420.28c0-148.608 139.32-264.707 308.825-264.707 153.252 0 285.606 92.88 313.47 218.267-9.288 0-20.898-2.322-30.186-2.322-146.286 0-262.386 109.134-262.386 246.132 0 23.22 4.644 44.118 9.288 65.016-6.966 2.322-18.576 2.322-27.864 2.322z m457.433 109.133l23.22 76.626-85.914-46.44c-30.185 6.966-62.693 16.254-92.88 16.254-148.607 0-264.707-99.845-264.707-225.233 0-123.066 116.1-225.234 264.708-225.234 139.32 0 262.385 99.846 262.385 225.234 2.322 69.66-44.118 132.354-106.812 178.793z" fill="#42AE3C" p-id="1795"></path><path d="M710.53 538.703c0 16.254 13.933 30.186 30.187 30.186s30.185-13.932 30.185-30.186c0-16.254-13.931-30.186-30.185-30.186-16.254 0-30.186 13.932-30.186 30.186z" fill="#42AE3C" p-id="1796"></path></svg>